<svg xmlns="http://www.w3.org/2000/svg" width="63" height="10" fill="none"><path fill="#fff" fill-rule="evenodd" d="M56.761 6.45v-.002h.001v.001Zm0 0c.191.201.4.384.627.544.096.068.202.135.317.2a2.757 2.757 0 0 0 .759.298 1.875 1.875 0 0 0 .775.013.931.931 0 0 0 .298-.114.61.61 0 0 0 .21-.211.635.635 0 0 0 .08-.331c0-.132-.061-.244-.182-.35a2.327 2.327 0 0 0-.477-.308c-.196-.1-.42-.202-.672-.308-.252-.106-.51-.225-.776-.356a7.605 7.605 0 0 1-.775-.444 3.473 3.473 0 0 1-.673-.574 2.7 2.7 0 0 1-.476-.75 2.43 2.43 0 0 1-.181-.967c0-.42.085-.8.257-1.142.172-.342.406-.637.705-.883.299-.245.65-.434 1.053-.567a4.1 4.1 0 0 1 1.298-.2c.209 0 .424.017.65.051.228.034.45.085.67.155.22.07.429.16.628.27.198.11.374.239.523.388.15.147.27.318.36.51.088.193.132.407.132.645v1.01h-2.082v-.401a.356.356 0 0 0-.083-.23.701.701 0 0 0-.21-.171 1.088 1.088 0 0 0-.29-.108 1.478 1.478 0 0 0-.67 0 1.114 1.114 0 0 0-.3.114.663.663 0 0 0-.216.192.485.485 0 0 0 .098.647c.121.108.28.21.477.304.196.095.421.191.673.29.251.098.51.207.775.33.264.123.522.263.775.42.251.157.476.342.673.558.196.215.355.466.476.756.121.287.182.622.182 1.002s-.074.758-.223 1.104a2.636 2.636 0 0 1-.645.913 3.13 3.13 0 0 1-1.034.625 3.924 3.924 0 0 1-1.399.233c-.276 0-.533-.023-.775-.066a4.705 4.705 0 0 1-1.263-.418 4.739 4.739 0 0 1-.482-.282 4.163 4.163 0 0 1-.875-.767l1.288-1.625ZM0 8.022 3.548 2.94c.097-.144.191-.269.28-.371.089-.104.165-.19.229-.263.075-.08.145-.15.21-.21v-.024c-.059.01-.127.015-.203.019-.064.01-.14.013-.228.015a13.29 13.29 0 0 1-.286.004H2.41c-.192 0-.286.094-.286.285v.509H.038v-1.8c0-.33.075-.57.225-.72.149-.15.389-.225.72-.225H7.16V1.56L3.598 6.67a6.137 6.137 0 0 1-.281.37c-.085.102-.159.187-.22.257l-.005.006a4.48 4.48 0 0 1-.21.21v.025c.046-.003.098-.008.154-.014l.048-.005.064-.004a6.719 6.719 0 0 1 .45-.015H5c.093 0 .165-.025.212-.076a.29.29 0 0 0 .074-.21v-.508h2.08v1.79c0 .335-.075.577-.224.726-.15.15-.393.225-.726.225H0V8.023Zm8.785-5.915h-.846V.158h5.853c.331 0 .571.076.72.226.15.15.225.39.225.72V2.9h-2.075v-.51c0-.092-.025-.164-.076-.211a.29.29 0 0 0-.21-.074h-1.262v1.688h2.652v1.949h-2.652v1.473a.29.29 0 0 0 .073.21c.05.05.12.075.212.075h1.29c.092 0 .163-.025.211-.076a.29.29 0 0 0 .074-.21v-.508h2.081v1.79c0 .335-.076.577-.225.726-.15.15-.393.225-.726.225H9.737c-.33 0-.57-.076-.724-.225-.153-.15-.228-.393-.228-.726v-6.39Zm28.91 0h.842v7.344h2.33V6.316h.31c.12 0 .224.004.313.015s.164.03.229.055a.47.47 0 0 1 .164.107.78.78 0 0 1 .127.178L43.1 8.76c.078.144.157.26.242.352.086.09.18.16.286.211.106.051.223.085.352.102.128.017.273.025.434.025h1.276V7.501h-.158c-.131 0-.252-.015-.362-.047-.109-.032-.2-.116-.272-.252l-.584-1.117a1.253 1.253 0 0 0-.178-.257 1.553 1.553 0 0 0-.183-.174 1.203 1.203 0 0 0-.21-.127v-.032a2.31 2.31 0 0 0 .679-.514c.085-.092.168-.2.251-.323.084-.123.155-.263.22-.42a3.127 3.127 0 0 0 .215-1.16c0-.466-.075-.88-.225-1.244a2.536 2.536 0 0 0-.631-.917 2.74 2.74 0 0 0-.972-.565 3.831 3.831 0 0 0-1.244-.193h-4.342v1.949Zm4.766 1.968c-.177.194-.438.29-.786.29h-.809V2.109h.845c.33 0 .582.094.756.28.174.185.261.465.261.837 0 .372-.089.656-.267.85Zm4.562-1.968h-.843V.158H50c.732 0 1.394.105 1.983.313.59.208 1.095.508 1.51.903.417.395.74.881.965 1.454.227.573.34 1.227.34 1.958 0 .732-.113 1.388-.34 1.965a4.062 4.062 0 0 1-.964 1.466c-.416.401-.92.706-1.51.917-.59.212-1.252.318-1.984.318h-2.024c-.33 0-.571-.076-.724-.225-.154-.15-.23-.393-.23-.726V2.108Zm2.331 5.11a.29.29 0 0 0 .073.21c.05.05.12.075.212.075h.272c.386 0 .73-.059 1.035-.174.304-.117.563-.29.775-.518a2.37 2.37 0 0 0 .49-.85c.112-.34.171-.73.171-1.175a3.59 3.59 0 0 0-.174-1.168 2.24 2.24 0 0 0-.499-.837 2.035 2.035 0 0 0-.78-.505 2.93 2.93 0 0 0-1.015-.168h-.558v5.11h-.002Zm-22.613-1.03-.12.52-.681 2.742h-2.666l-.743-2.741h-1.25l-.74 2.741h-2.666l-.688-2.741-.128-.522h9.682ZM22.834.173H20.97l-1.02 4.051h3.899L22.834.174Zm-6.86 1.99c.053.038.098.114.12.227l.462 1.832h2.378L18.229.907c-.06-.28-.19-.478-.386-.591-.196-.106-.454-.16-.773-.16h-1.665v1.95h.325c.113 0 .189.023.242.06l.001-.002ZM26.718.16c-.326 0-.583.053-.781.159-.19.105-.318.302-.378.591l-.705 3.316h2.378l.46-1.832a.38.38 0 0 1 .122-.227.43.43 0 0 1 .234-.06h.333V.159H26.72Zm10.015 7.283c.043.04.119.06.224.06h.243v1.95h-1.498c-.16 0-.298-.013-.415-.038a.836.836 0 0 1-.301-.13.806.806 0 0 1-.216-.235 1.698 1.698 0 0 1-.158-.351l-.399-1.193-.496-1.885-.468-1.548a9.008 9.008 0 0 1-.136-.486 18.433 18.433 0 0 1-.117-.499 15.269 15.269 0 0 1-.122-.552h-.032a29.805 29.805 0 0 1-.238 1.051 7.619 7.619 0 0 1-.136.486L32 5.62l-.49 1.885-.406 1.193c-.047.14-.1.257-.159.351a.808.808 0 0 1-.215.235.751.751 0 0 1-.3.13 2.04 2.04 0 0 1-.417.038h-1.497v-1.95h.248c.106 0 .181-.02.225-.06a.576.576 0 0 0 .13-.225L31.653.16h2.417l2.533 7.058c.044.11.087.186.13.225Z" clip-rule="evenodd"/></svg>